<svg width="25" height="16" viewBox="0 0 25 16" fill="none" xmlns="http://www.w3.org/2000/svg">
<g clip-path="url(#clip0_2_16)">
<path d="M19.1032 6H23.8968C23.9763 6 24.0258 6.0796 23.9859 6.14307L21.5891 9.95264C21.5493 10.0158 21.4507 10.0158 21.4109 9.95264L19.0141 6.14307C18.9742 6.0796 19.0237 6 19.1032 6Z" fill="white"/>
<path fill-rule="evenodd" clip-rule="evenodd" d="M15.4564 1H1.54357V4.90561H2.03538C2.1044 3.67061 2.9629 3.05311 4.61087 3.0531H12.3115C13.2002 3.05311 13.8516 3.2006 14.2657 3.49558C14.6799 3.79057 14.9128 4.26058 14.9646 4.90561H15.4564V1ZM4.41674 6.39233H3.92494V11.6903H4.41674C4.41674 11.0846 4.56557 10.6441 4.86324 10.3687C5.16091 10.0934 5.81018 9.95576 6.81104 9.95575H10.189C11.1553 9.95576 11.7959 10.0875 12.1109 10.351C12.4258 10.6146 12.5833 11.061 12.5833 11.6903H13.0621V6.39233H12.5833C12.5833 7.11604 12.3977 7.58408 12.0267 7.79646C11.6557 8.00886 11.0431 8.11505 10.189 8.11505H6.81104C5.97411 8.11505 5.36583 8.00886 4.9862 7.79646C4.60655 7.58408 4.41674 7.11604 4.41674 6.39233Z" fill="white"/>
<path d="M1.47886 12.5044H1V17H16V12.5044H15.5082V12.7876C15.5082 13.6136 15.2968 14.1721 14.874 14.4631C14.4512 14.7542 13.7696 14.8997 12.8292 14.8997H4.3132C3.55392 14.8997 3.00172 14.8505 2.6566 14.7522C2.31147 14.6539 2.0289 14.4513 1.80889 14.1445C1.58887 13.8378 1.47886 13.3855 1.47886 12.7876V12.5044Z" fill="white"/>
</g>
<defs>
<clipPath id="clip0_2_16">
<rect width="25" height="16" fill="white"/>
</clipPath>
</defs>
</svg>
