<svg width="30" height="12" viewBox="0 0 36 12" fill="none" xmlns="http://www.w3.org/2000/svg">
<path d="M32.7148 11.5909C32.229 11.5909 31.8114 11.5284 31.462 11.4034C31.1126 11.2813 30.8214 11.1193 30.5884 10.9176C30.3583 10.7188 30.1751 10.5057 30.0387 10.2784L30.8398 9.71591C30.9307 9.83523 31.0458 9.9716 31.185 10.125C31.3242 10.2813 31.5146 10.4162 31.756 10.5298C32.0004 10.6463 32.32 10.7046 32.7148 10.7046C33.2432 10.7046 33.6793 10.5767 34.0231 10.321C34.3668 10.0653 34.5387 9.66478 34.5387 9.11932V7.78978H34.4535C34.3796 7.9091 34.2745 8.05682 34.1381 8.23296C34.0046 8.40626 33.8114 8.56109 33.5586 8.69745C33.3086 8.83097 32.9705 8.89773 32.5444 8.89773C32.016 8.89773 31.5415 8.77273 31.1211 8.52273C30.7035 8.27273 30.3725 7.9091 30.1282 7.43182C29.8867 6.95455 29.766 6.37501 29.766 5.69319C29.766 5.02273 29.8839 4.43893 30.1197 3.94177C30.3555 3.44177 30.6836 3.0554 31.104 2.78268C31.5245 2.50711 32.0103 2.36932 32.5614 2.36932C32.9876 2.36932 33.3256 2.44035 33.5756 2.58239C33.8285 2.7216 34.0217 2.88069 34.1552 3.05966C34.2915 3.2358 34.3967 3.38069 34.4705 3.49432H34.5728V2.45455H35.5444V9.18751C35.5444 9.75001 35.4165 10.2074 35.1609 10.5597C34.908 10.9148 34.5671 11.1747 34.1381 11.3395C33.712 11.5071 33.2376 11.5909 32.7148 11.5909ZM32.6807 7.99432C33.0842 7.99432 33.4251 7.90199 33.7035 7.71733C33.9819 7.53268 34.1935 7.26705 34.3384 6.92046C34.4833 6.57387 34.5557 6.1591 34.5557 5.67614C34.5557 5.20455 34.4847 4.78836 34.3427 4.42756C34.2006 4.06677 33.9904 3.7841 33.712 3.57955C33.4336 3.37501 33.0898 3.27273 32.6807 3.27273C32.2546 3.27273 31.8995 3.38069 31.6154 3.5966C31.3342 3.81251 31.1225 4.10228 30.9805 4.46591C30.8413 4.82955 30.7717 5.23296 30.7717 5.67614C30.7717 6.13069 30.8427 6.53268 30.9847 6.88211C31.1296 7.2287 31.3427 7.50143 31.6239 7.70029C31.908 7.89631 32.2603 7.99432 32.6807 7.99432Z" fill="white"/>
<path d="M24.0589 5.06251V9.00001H23.0533V2.45455H24.0248V3.47728H24.1101C24.2635 3.14489 24.4964 2.87785 24.8089 2.67614C25.1214 2.4716 25.5248 2.36932 26.0192 2.36932C26.4623 2.36932 26.8501 2.46023 27.1825 2.64205C27.5149 2.82103 27.7734 3.09376 27.9581 3.46023C28.1427 3.82387 28.2351 4.2841 28.2351 4.84091V9.00001H27.2294V4.9091C27.2294 4.39489 27.0959 3.99432 26.8288 3.70739C26.5618 3.41762 26.1953 3.27273 25.7294 3.27273C25.4084 3.27273 25.1214 3.34234 24.8686 3.48154C24.6186 3.62074 24.4212 3.82387 24.2763 4.09091C24.1314 4.35796 24.0589 4.68182 24.0589 5.06251Z" fill="white"/>
<path d="M20.2056 9V2.45455H21.2113V9H20.2056ZM20.717 1.36364C20.521 1.36364 20.3519 1.29688 20.2099 1.16335C20.0707 1.02983 20.0011 0.869318 20.0011 0.681818C20.0011 0.494318 20.0707 0.333807 20.2099 0.200284C20.3519 0.0667613 20.521 0 20.717 0C20.913 0 21.0806 0.0667613 21.2198 0.200284C21.3619 0.333807 21.4329 0.494318 21.4329 0.681818C21.4329 0.869318 21.3619 1.02983 21.2198 1.16335C21.0806 1.29688 20.913 1.36364 20.717 1.36364Z" fill="white"/>
<path d="M18.3636 0.27272V8.99999H17.3579V0.27272H18.3636Z" fill="white"/>
<path d="M15.516 0.27272V8.99999H14.5103V0.27272H15.516Z" fill="white"/>
<path d="M10.2703 9.13637C9.63957 9.13637 9.09554 8.99716 8.63815 8.71876C8.1836 8.43751 7.83275 8.04546 7.58559 7.54262C7.34128 7.03694 7.21912 6.44887 7.21912 5.77841C7.21912 5.10796 7.34128 4.51705 7.58559 4.00569C7.83275 3.49148 8.1765 3.09091 8.61684 2.80398C9.06003 2.51421 9.57707 2.36932 10.168 2.36932C10.5089 2.36932 10.8455 2.42614 11.1779 2.53978C11.5103 2.65341 11.8129 2.83807 12.0856 3.09376C12.3583 3.3466 12.5757 3.68182 12.7376 4.09944C12.8995 4.51705 12.9805 5.03126 12.9805 5.64205V6.06819H7.93503V5.19887H11.9578C11.9578 4.82955 11.8839 4.50001 11.7362 4.21023C11.5913 3.92046 11.3839 3.69177 11.114 3.52415C10.847 3.35654 10.5316 3.27273 10.168 3.27273C9.76741 3.27273 9.42082 3.37216 9.12821 3.57103C8.83843 3.76705 8.61542 4.02273 8.45917 4.33807C8.30292 4.65341 8.2248 4.99148 8.2248 5.35228V5.93182C8.2248 6.42614 8.31003 6.84518 8.48048 7.18893C8.65378 7.52983 8.89383 7.78978 9.20065 7.96876C9.50747 8.14489 9.864 8.23296 10.2703 8.23296C10.5345 8.23296 10.7731 8.19603 10.9862 8.12216C11.2021 8.04546 11.3882 7.93182 11.5444 7.78126C11.7007 7.62785 11.8214 7.43751 11.9066 7.21023L12.8782 7.48296C12.7759 7.81251 12.6041 8.10228 12.3626 8.35228C12.1211 8.59944 11.8228 8.79262 11.4677 8.93182C11.1126 9.06819 10.7134 9.13637 10.2703 9.13637Z" fill="white"/>
<path d="M0.0568237 8.99999V0.27272H3.00569C3.68751 0.27272 4.24716 0.389198 4.68466 0.622152C5.12216 0.852266 5.44603 1.16903 5.65626 1.57244C5.86648 1.97585 5.9716 2.43465 5.9716 2.94886C5.9716 3.46306 5.86648 3.91903 5.65626 4.31675C5.44603 4.71448 5.12358 5.02698 4.68893 5.25425C4.25427 5.47869 3.69887 5.5909 3.02273 5.5909H0.636369V4.63636H2.98864C3.45455 4.63636 3.82955 4.56818 4.11364 4.43181C4.40057 4.29545 4.60796 4.10227 4.7358 3.85227C4.86648 3.59942 4.93182 3.29829 4.93182 2.94886C4.93182 2.59942 4.86648 2.29403 4.7358 2.03266C4.60512 1.7713 4.39631 1.5696 4.10938 1.42755C3.82245 1.28266 3.44319 1.21022 2.9716 1.21022H1.11364V8.99999H0.0568237ZM4.16478 5.07954L6.31251 8.99999H5.08523L2.9716 5.07954H4.16478Z" fill="white"/>
</svg>
